<svg width="105" height="44" viewBox="0 0 105 44" fill="none" xmlns="http://www.w3.org/2000/svg">
<path d="M15.06 11.17C14.56 10.61 13.79 10.1 12.75 9.64C11.71 9.18 10.55 8.95 9.27 8.95C7.63 8.95 6.42 9.26 5.64 9.88C4.86 10.5 4.47 11.35 4.47 12.43C4.47 13.19 4.67 13.79 5.07 14.23C5.47 14.67 6.08 15.03 6.9 15.31C7.74 15.59 8.8 15.88 10.08 16.18C11.56 16.5 12.84 16.89 13.92 17.35C15 17.81 15.83 18.43 16.41 19.21C16.99 19.97 17.28 20.99 17.28 22.27C17.28 23.63 16.94 24.75 16.26 25.63C15.58 26.51 14.65 27.16 13.47 27.58C12.31 28 11 28.21 9.54 28.21C6.22 28.21 3.33 27.21 0.87 25.21L2.16 22.93C2.6 23.37 3.19 23.81 3.93 24.25C4.69 24.69 5.55 25.06 6.51 25.36C7.49 25.64 8.52 25.78 9.6 25.78C11.12 25.78 12.3 25.51 13.14 24.97C13.98 24.41 14.4 23.6 14.4 22.54C14.4 21.74 14.16 21.1 13.68 20.62C13.22 20.14 12.53 19.74 11.61 19.42C10.69 19.1 9.57 18.78 8.25 18.46C6.81 18.1 5.6 17.71 4.62 17.29C3.64 16.85 2.9 16.28 2.4 15.58C1.92 14.88 1.68 13.97 1.68 12.85C1.68 11.49 2.01 10.34 2.67 9.4C3.33 8.46 4.24 7.75 5.4 7.27C6.56 6.79 7.87 6.55 9.33 6.55C10.75 6.55 12.04 6.77 13.2 7.21C14.38 7.65 15.42 8.24 16.32 8.98L15.06 11.17ZM45.9413 9.1H38.5913V28H35.8913V9.1H28.5413V6.7H45.9413V9.1ZM59.569 6.7L66.019 17.8L72.529 6.7H75.469L67.369 20.23V28H64.669V20.17L56.599 6.7H59.569ZM88.7672 6.7L95.1872 15.52L101.607 6.7H104.637L96.6872 17.5L104.397 28H101.367L95.1872 19.48L89.0072 28H85.9472L93.6572 17.5L85.7072 6.7H88.7672Z" fill="#7EAA7B"/>
<path d="M1.272 37.352V42H0.712V36.32H1.176L4.904 41.056V36.328H5.464V42H4.944L1.272 37.352ZM10.4917 36.32H10.9637L13.3237 42H12.7317L11.9957 40.224H9.44369L8.71569 42H8.11569L10.4917 36.32ZM11.8677 39.784L10.7237 36.976L9.56369 39.784H11.8677ZM19.4631 36.816H17.4391V42H16.8791V36.816H14.8551V36.32H19.4631V36.816ZM24.4659 42.04C24.0179 42.04 23.6392 41.96 23.3299 41.8C23.0259 41.64 22.7805 41.424 22.5939 41.152C22.4072 40.88 22.2739 40.576 22.1939 40.24C22.1139 39.8987 22.0739 39.5467 22.0739 39.184V36.32H22.6259V39.184C22.6259 39.4827 22.6552 39.7733 22.7139 40.056C22.7779 40.3333 22.8792 40.584 23.0179 40.808C23.1565 41.032 23.3432 41.2107 23.5779 41.344C23.8125 41.472 24.1059 41.536 24.4579 41.536C24.8205 41.536 25.1192 41.4693 25.3539 41.336C25.5939 41.2027 25.7832 41.024 25.9219 40.8C26.0605 40.5707 26.1565 40.3173 26.2099 40.04C26.2685 39.7573 26.2979 39.472 26.2979 39.184V36.32H26.8579V39.184C26.8579 39.5627 26.8152 39.9253 26.7299 40.272C26.6445 40.6133 26.5059 40.9173 26.3139 41.184C26.1272 41.4507 25.8819 41.6613 25.5779 41.816C25.2739 41.9653 24.9032 42.04 24.4659 42.04ZM30.0329 42V36.32H32.4329C32.6783 36.32 32.9023 36.3707 33.1049 36.472C33.3129 36.5733 33.4916 36.712 33.6409 36.888C33.7903 37.0587 33.9049 37.2507 33.9849 37.464C34.0703 37.672 34.1129 37.8853 34.1129 38.104C34.1129 38.3813 34.0596 38.64 33.9529 38.88C33.8516 39.12 33.7049 39.3227 33.5129 39.488C33.3209 39.6533 33.0996 39.76 32.8489 39.808L34.2409 42H33.6089L32.2729 39.904H30.5929V42H30.0329ZM30.5929 39.408H32.4489C32.6729 39.408 32.8676 39.3467 33.0329 39.224C33.1983 39.096 33.3263 38.9333 33.4169 38.736C33.5076 38.5387 33.5529 38.328 33.5529 38.104C33.5529 37.8747 33.4996 37.664 33.3929 37.472C33.2916 37.2747 33.1529 37.1173 32.9769 37C32.8009 36.8773 32.6089 36.816 32.4009 36.816H30.5929V39.408ZM38.8361 36.32H39.3081L41.6681 42H41.0761L40.3401 40.224H37.7881L37.0601 42H36.4601L38.8361 36.32ZM40.2121 39.784L39.0681 36.976L37.9081 39.784H40.2121ZM44.3223 42V36.32H44.8823V41.504H48.1623V42H44.3223ZM50.216 39.12C50.216 38.7787 50.2747 38.44 50.392 38.104C50.5147 37.768 50.6907 37.464 50.92 37.192C51.1493 36.9147 51.432 36.696 51.768 36.536C52.104 36.3707 52.4853 36.288 52.912 36.288C53.4133 36.288 53.8453 36.4053 54.208 36.64C54.5707 36.8693 54.8373 37.1653 55.008 37.528L54.568 37.8C54.4453 37.5493 54.2907 37.352 54.104 37.208C53.9173 37.0587 53.7173 36.952 53.504 36.888C53.296 36.824 53.088 36.792 52.88 36.792C52.5387 36.792 52.2373 36.8613 51.976 37C51.7147 37.1333 51.4933 37.3147 51.312 37.544C51.136 37.7733 51.0027 38.0267 50.912 38.304C50.8213 38.5813 50.776 38.864 50.776 39.152C50.776 39.4667 50.8293 39.768 50.936 40.056C51.0427 40.3387 51.192 40.592 51.384 40.816C51.576 41.04 51.8 41.2187 52.056 41.352C52.3173 41.48 52.6 41.544 52.904 41.544C53.1173 41.544 53.336 41.5067 53.56 41.432C53.784 41.3573 53.992 41.2427 54.184 41.088C54.376 40.9333 54.5333 40.7333 54.656 40.488L55.12 40.728C54.9973 41.0107 54.8133 41.2507 54.568 41.448C54.328 41.6453 54.056 41.7947 53.752 41.896C53.4533 41.9973 53.16 42.048 52.872 42.048C52.4827 42.048 52.1253 41.9653 51.8 41.8C51.4747 41.6293 51.192 41.4053 50.952 41.128C50.7173 40.8453 50.536 40.5307 50.408 40.184C50.28 39.832 50.216 39.4773 50.216 39.12ZM60.1419 42.04C59.7419 42.04 59.3792 41.96 59.0539 41.8C58.7285 41.6347 58.4485 41.416 58.2139 41.144C57.9792 40.872 57.7979 40.5653 57.6699 40.224C57.5419 39.8773 57.4779 39.5227 57.4779 39.16C57.4779 38.7813 57.5445 38.4213 57.6779 38.08C57.8112 37.7333 57.9979 37.4267 58.2379 37.16C58.4832 36.888 58.7685 36.6747 59.0939 36.52C59.4192 36.36 59.7712 36.28 60.1499 36.28C60.5445 36.28 60.9045 36.3627 61.2299 36.528C61.5552 36.6933 61.8352 36.9147 62.0699 37.192C62.3099 37.4693 62.4912 37.7787 62.6139 38.12C62.7419 38.4613 62.8059 38.8107 62.8059 39.168C62.8059 39.5467 62.7392 39.9093 62.6059 40.256C62.4725 40.5973 62.2859 40.904 62.0459 41.176C61.8059 41.4427 61.5232 41.6533 61.1979 41.808C60.8725 41.9627 60.5205 42.04 60.1419 42.04ZM58.0379 39.16C58.0379 39.4693 58.0885 39.7653 58.1899 40.048C58.2912 40.3307 58.4352 40.584 58.6219 40.808C58.8085 41.032 59.0299 41.2107 59.2859 41.344C59.5472 41.472 59.8325 41.536 60.1419 41.536C60.4672 41.536 60.7579 41.4693 61.0139 41.336C61.2752 41.1973 61.4965 41.0133 61.6779 40.784C61.8645 40.5547 62.0059 40.3013 62.1019 40.024C62.1979 39.7413 62.2459 39.4533 62.2459 39.16C62.2459 38.8507 62.1952 38.5547 62.0939 38.272C61.9925 37.9893 61.8459 37.736 61.6539 37.512C61.4672 37.288 61.2459 37.112 60.9899 36.984C60.7339 36.856 60.4512 36.792 60.1419 36.792C59.8219 36.792 59.5312 36.8587 59.2699 36.992C59.0139 37.1253 58.7925 37.3067 58.6059 37.536C58.4245 37.76 58.2832 38.0133 58.1819 38.296C58.0859 38.5787 58.0379 38.8667 58.0379 39.16ZM69.0217 37.384C68.8617 37.208 68.6484 37.064 68.3817 36.952C68.115 36.8347 67.811 36.776 67.4697 36.776C66.9684 36.776 66.603 36.872 66.3737 37.064C66.1444 37.2507 66.0297 37.5067 66.0297 37.832C66.0297 38.056 66.0857 38.232 66.1977 38.36C66.3097 38.488 66.4804 38.5947 66.7097 38.68C66.9444 38.76 67.243 38.84 67.6057 38.92C68.011 39.0053 68.3604 39.1067 68.6537 39.224C68.947 39.3413 69.1737 39.5013 69.3337 39.704C69.4937 39.9013 69.5737 40.1707 69.5737 40.512C69.5737 40.8587 69.4857 41.1467 69.3097 41.376C69.1337 41.6053 68.891 41.776 68.5817 41.888C68.2724 41.9947 67.9204 42.048 67.5257 42.048C66.6404 42.048 65.8804 41.7733 65.2457 41.224L65.5257 40.768C65.7284 40.9813 66.0057 41.1653 66.3577 41.32C66.715 41.4747 67.1097 41.552 67.5417 41.552C67.9897 41.552 68.3417 41.4693 68.5977 41.304C68.8537 41.1387 68.9817 40.8933 68.9817 40.568C68.9817 40.3333 68.9177 40.1467 68.7897 40.008C68.6617 39.864 68.4697 39.7467 68.2137 39.656C67.9577 39.5653 67.643 39.4773 67.2697 39.392C66.875 39.3013 66.5417 39.2 66.2697 39.088C66.003 38.976 65.8004 38.8293 65.6617 38.648C65.523 38.4667 65.4537 38.2213 65.4537 37.912C65.4537 37.56 65.539 37.264 65.7097 37.024C65.8857 36.7787 66.1257 36.5947 66.4297 36.472C66.7337 36.344 67.083 36.28 67.4777 36.28C67.851 36.28 68.187 36.3387 68.4857 36.456C68.7844 36.568 69.0537 36.728 69.2937 36.936L69.0217 37.384ZM77.4331 42V37.376L75.3771 40.968H75.0251L72.9611 37.376V42H72.4011V36.32H72.9771L75.1931 40.208L77.4251 36.32H77.9931V42H77.4331ZM85.0727 41.504V42H81.2567V36.32H85.0007V36.816H81.8167V38.864H84.5927V39.336H81.8167V41.504H85.0727ZM92.0037 36.816H89.9797V42H89.4197V36.816H87.3957V36.32H92.0037V36.816ZM94.6945 42V36.32H95.2545V42H94.6945ZM98.1429 39.12C98.1429 38.7787 98.2015 38.44 98.3189 38.104C98.4415 37.768 98.6175 37.464 98.8469 37.192C99.0762 36.9147 99.3589 36.696 99.6949 36.536C100.031 36.3707 100.412 36.288 100.839 36.288C101.34 36.288 101.772 36.4053 102.135 36.64C102.498 36.8693 102.764 37.1653 102.935 37.528L102.495 37.8C102.372 37.5493 102.218 37.352 102.031 37.208C101.844 37.0587 101.644 36.952 101.431 36.888C101.223 36.824 101.015 36.792 100.807 36.792C100.466 36.792 100.164 36.8613 99.9029 37C99.6415 37.1333 99.4202 37.3147 99.2389 37.544C99.0629 37.7733 98.9295 38.0267 98.8389 38.304C98.7482 38.5813 98.7029 38.864 98.7029 39.152C98.7029 39.4667 98.7562 39.768 98.8629 40.056C98.9695 40.3387 99.1189 40.592 99.3109 40.816C99.5029 41.04 99.7269 41.2187 99.9829 41.352C100.244 41.48 100.527 41.544 100.831 41.544C101.044 41.544 101.263 41.5067 101.487 41.432C101.711 41.3573 101.919 41.2427 102.111 41.088C102.303 40.9333 102.46 40.7333 102.583 40.488L103.047 40.728C102.924 41.0107 102.74 41.2507 102.495 41.448C102.255 41.6453 101.983 41.7947 101.679 41.896C101.38 41.9973 101.087 42.048 100.799 42.048C100.41 42.048 100.052 41.9653 99.7269 41.8C99.4015 41.6293 99.1189 41.4053 98.8789 41.128C98.6442 40.8453 98.4629 40.5307 98.3349 40.184C98.2069 39.832 98.1429 39.4773 98.1429 39.12Z" fill="black"/>
</svg>
